:FULLY-SPECIFIED
:FORCE-ALL-JOINTS-BE-3DOF
:DEGREES
2956
root -6.02541 13.1201 -28.7236 1243.34 -66.8724 -160.259
lfemur -67.8199 43.4165 -6.44838
ltibia 75.5933 0 0
lfoot -4.67707 -2.94397 0
ltoes -38.2953 0 0
rfemur -35.6226 -17.7626 23.3616
rtibia 91.0838 0 0
rfoot -40.2572 -31.1367 0
rtoes -11.7008 0 0
lowerback 16.4481 5.27999 1.30711
upperback -4.44151 7.58817 1.47335
thorax -14.2848 3.4576 -1.23407
lowerneck -3.0137 9.63806 1.53342
upperneck 8.09324 12.6596 1.43597
head 3.11967 6.35756 0.663408
lclavicle -7.64544e-14 -7.55382e-15 0
lhumerus 5.68357 14.9658 82.4124
lradius 90.5961 0 0
lwrist -18.196 0 0
lhand -38.8874 387.925 0
lfingers 7.12502 0 0
lthumb -11.8951 -662.433 0
rclavicle -7.64544e-14 -7.55382e-15 0
rhumerus -57.5155 50.8409 -110.015
rradius 112.645 0 0
rwrist -80.6079 0 0
rhand 6.18205 -385.974 0
rfingers 7.12502 0 0
rthumb 31.4968 306.72 0
2957
root -6.01125 13.1197 -28.7231 1243.44 -67.0645 -160.25
lfemur -67.7257 42.8998 -6.36216
ltibia 74.9331 0 0
lfoot -4.38096 -2.8104 0
ltoes -38.2586 0 0
rfemur -35.7451 -17.7126 23.3986
rtibia 91.1552 0 0
rfoot -40.1292 -31.3699 0
rtoes -11.3888 0 0
lowerback 16.4794 5.21258 1.27436
upperback -4.41958 7.49056 1.47694
thorax -14.2838 3.4156 -1.18666
lowerneck -3.03087 9.65324 1.52379
upperneck 7.92965 12.6929 1.31392
head 3.07488 6.37059 0.623052
lclavicle 3.29734e-14 -2.94201e-14 0
lhumerus 5.6701 15.1109 82.1124
lradius 90.5037 0 0
lwrist -17.9745 0 0
lhand -38.8408 388.29 0
lfingers 7.12502 0 0
lthumb -11.8501 -662.065 0
rclavicle 3.29734e-14 -2.94201e-14 0
rhumerus -56.7641 50.7339 -109.23
rradius 112.458 0 0
rwrist -79.7502 0 0
rhand 5.75777 -386.038 0
rfingers 7.12502 0 0
rthumb 31.0925 306.578 0
2958
root -5.99713 13.1227 -28.7251 1243.62 -67.1371 -160.424
lfemur -67.5994 42.2069 -6.24654
ltibia 74.2352 0 0
lfoot -4.11187 -2.68903 0
ltoes -38.1528 0 0
rfemur -35.8535 -17.6683 23.4314
rtibia 91.2232 0 0
rfoot -39.9945 -31.6151 0
rtoes -11.0751 0 0
lowerback 16.578 5.1983 1.15298
upperback -4.36371 7.44897 1.50703
thorax -14.299 3.40775 -1.08187
lowerneck -3.06552 9.69301 1.54132
upperneck 7.81088 12.7632 1.10719
head 3.05721 6.39959 0.556967
lclavicle 5.47714e-14 -3.57812e-15 0
lhumerus 5.66677 15.2356 81.7591
lradius 90.4406 0 0
lwrist -17.7089 0 0
lhand -38.9457 388.974 0
lfingers 7.12502 0 0
lthumb -11.9513 -661.387 0
rclavicle 5.47714e-14 -3.57812e-15 0
rhumerus -55.8306 50.5911 -108.231
rradius 112.171 0 0
rwrist -78.8687 0 0
rhand 5.37176 -385.939 0
rfingers 7.12502 0 0
rthumb 30.7245 306.608 0
2959
root -5.9724 13.12 -28.7311 1243.77 -67.3915 -160.476
lfemur -67.4442 41.3555 -6.10447
ltibia 73.5078 0 0
lfoot -3.87656 -2.58289 0
ltoes -37.9841 0 0
rfemur -35.9461 -17.6305 23.4593
rtibia 91.2865 0 0
rfoot -39.8546 -31.8699 0
rtoes -10.7631 0 0
lowerback 16.6856 5.14626 1.02155
upperback -4.32295 7.3504 1.50064
thorax -14.3333 3.37199 -0.997305
lowerneck -3.0728 9.69113 1.47583
upperneck 7.55018 12.7739 1.03225
head 2.96999 6.40224 0.534409
lclavicle -5.34234e-15 5.96354e-15 0
lhumerus 5.66122 15.3603 81.4177
lradius 90.3392 0 0
lwrist -17.2829 0 0
lhand -38.9313 389.215 0
lfingers 7.12502 0 0
lthumb -11.9374 -661.145 0
rclavicle -5.34234e-15 5.96354e-15 0
rhumerus -54.5146 50.302 -106.931
rradius 111.787 0 0
rwrist -78.0217 0 0
rhand 5.0968 -386.015 0
rfingers 7.12502 0 0
rthumb 30.4623 306.482 0
